<?xml version="1.0" encoding="utf-8"?>
<!-- Generator: Adobe Illustrator 25.0.1, SVG Export Plug-In . SVG Version: 6.00 Build 0)  -->
<svg version="1.1" id="Calque_1" xmlns="http://www.w3.org/2000/svg" xmlns:xlink="http://www.w3.org/1999/xlink" x="0px" y="0px"
	 viewBox="0 0 23.5 24.7" style="enable-background:new 0 0 23.5 24.7;" xml:space="preserve">
<g>
	<g>
		<path d="M11.8,6.2c-3.2,0-5.9,2.8-5.9,6.2s2.6,6.2,5.9,6.2c3.2,0,5.9-2.8,5.9-6.2S15,6.2,11.8,6.2z"/>
		<g>
			<g>
				<path d="M11.8,4.3c-0.6,0-1.1-0.5-1.1-1.2V1.2c0-0.7,0.5-1.2,1.1-1.2s1.1,0.5,1.1,1.2v1.9C12.9,3.8,12.4,4.3,11.8,4.3z"/>
			</g>
			<g>
				<path d="M11.8,20.3c-0.6,0-1.1,0.5-1.1,1.2v1.9c0,0.7,0.5,1.2,1.1,1.2s1.1-0.5,1.1-1.2v-1.9C12.9,20.9,12.4,20.3,11.8,20.3z"/>
			</g>
			<g>
				<path d="M17.1,6.7c-0.4-0.5-0.4-1.2,0-1.7l1.3-1.4c0.4-0.5,1.2-0.5,1.6,0s0.4,1.2,0,1.7l-1.3,1.4C18.3,7.2,17.6,7.2,17.1,6.7z"
					/>
			</g>
			<g>
				<path d="M6.4,18c-0.4-0.5-1.2-0.5-1.6,0l-1.3,1.4c-0.4,0.5-0.4,1.2,0,1.7s1.2,0.5,1.6,0l1.3-1.4C6.8,19.2,6.8,18.5,6.4,18z"/>
			</g>
			<g>
				<path d="M19.4,12.3c0-0.7,0.5-1.2,1.1-1.2h1.8c0.6,0,1.1,0.5,1.1,1.2s-0.5,1.2-1.1,1.2h-1.8C19.9,13.5,19.4,13,19.4,12.3z"/>
			</g>
			<g>
				<path d="M4.1,12.3c0-0.7-0.5-1.2-1.1-1.2H1.2c-0.6,0-1.1,0.5-1.1,1.2s0.5,1.2,1.1,1.2H3C3.6,13.5,4.1,13,4.1,12.3z"/>
			</g>
			<g>
				<path d="M17.1,18c0.4-0.5,1.2-0.5,1.6,0l1.3,1.4c0.4,0.5,0.4,1.2,0,1.7s-1.2,0.5-1.6,0l-1.3-1.4C16.7,19.2,16.7,18.5,17.1,18z"
					/>
			</g>
			<g>
				<path d="M6.4,6.7c0.4-0.5,0.4-1.2,0-1.7L5.1,3.6c-0.4-0.5-1.2-0.5-1.6,0C3,4.1,3,4.9,3.4,5.3l1.3,1.4C5.2,7.2,5.9,7.2,6.4,6.7z"
					/>
			</g>
		</g>
	</g>
</g>
</svg>
